<?xml version="1.0" encoding="UTF-8" standalone="no"?>
<!-- Created with Inkscape (http://www.inkscape.org/) -->

<svg
   xmlns:dc="http://purl.org/dc/elements/1.1/"
   xmlns:cc="http://creativecommons.org/ns#"
   xmlns:rdf="http://www.w3.org/1999/02/22-rdf-syntax-ns#"
   xmlns:svg="http://www.w3.org/2000/svg"
   xmlns="http://www.w3.org/2000/svg"
   xmlns:sodipodi="http://sodipodi.sourceforge.net/DTD/sodipodi-0.dtd"
   xmlns:inkscape="http://www.inkscape.org/namespaces/inkscape"
   width="800"
   height="800"
   id="svg2"
   version="1.1"
   inkscape:version="0.48.4 r9939"
   sodipodi:docname="New document 1">
  <defs
     id="defs4" />
  <sodipodi:namedview
     id="base"
     pagecolor="#ffffff"
     bordercolor="#666666"
     borderopacity="1.0"
     inkscape:pageopacity="0.0"
     inkscape:pageshadow="2"
     inkscape:zoom="0.35"
     inkscape:cx="-66.428571"
     inkscape:cy="520"
     inkscape:document-units="px"
     inkscape:current-layer="g2996"
     showgrid="false"
     inkscape:window-width="1920"
     inkscape:window-height="1024"
     inkscape:window-x="-4"
     inkscape:window-y="-4"
     inkscape:window-maximized="1" />
  <metadata
     id="metadata7">
    <rdf:RDF>
      <cc:Work
         rdf:about="">
        <dc:format>image/svg+xml</dc:format>
        <dc:type
           rdf:resource="http://purl.org/dc/dcmitype/StillImage" />
        <dc:title></dc:title>
      </cc:Work>
    </rdf:RDF>
  </metadata>
  <g
     inkscape:label="Layer 1"
     inkscape:groupmode="layer"
     id="layer1"
     transform="translate(0,-252.36218)">
    <g
       id="g2996"
       transform="matrix(7.014007,0,0,7.014007,-1787.6557,-2229.651)">
      <polygon
         id="polygon2986"
         points="349.089,351.015 305.393,351.015 319.062,364.685 289.981,393.765 306.339,410.123 335.42,381.042 349.089,394.711 "
         style="fill:#5b93c2;fill-opacity:1"
         transform="matrix(1.3389832,0,0,1.3768772,-100.61568,-127.23842)" />
      <path
         id="path2988"
         d="m 327.02208,433.1313 v 13.33643 c 0,4.23528 -3.35013,7.68023 -7.46885,7.68023 h -42.97467 c -4.1187,0 -7.46884,-3.44495 -7.46884,-7.68023 v -44.19087 c 0,-4.23528 3.35014,-7.68023 7.46884,-7.68023 h 17.5996 l 11.7161,-12.04766 h -38.00971 c -5.78441,0 -10.48959,4.83972 -10.48959,10.78644 v 62.07101 c 0,5.94811 4.70652,10.78645 10.48959,10.78645 h 60.3627 c 5.78441,0 10.4896,-4.83972 10.4896,-10.78645 v -34.32418 l -11.71477,12.04906 z"
         inkscape:connector-curvature="0"
         style="fill:#5b93c2;fill-opacity:1" />
    </g>
  </g>
</svg>
